<svg width="27" height="24" viewBox="0 0 27 24" fill="none" xmlns="http://www.w3.org/2000/svg">
<path d="M10.5 23C11.3284 23 12 22.3284 12 21.5C12 20.6716 11.3284 20 10.5 20C9.67157 20 9 20.6716 9 21.5C9 22.3284 9.67157 23 10.5 23Z" stroke="#5F3305" stroke-width="1.8" stroke-linecap="round" stroke-linejoin="round"/>
<path d="M22.5 23C23.3284 23 24 22.3284 24 21.5C24 20.6716 23.3284 20 22.5 20C21.6716 20 21 20.6716 21 21.5C21 22.3284 21.6716 23 22.5 23Z" stroke="#5F3305" stroke-width="1.8" stroke-linecap="round" stroke-linejoin="round"/>
<path d="M1 1H5.54545L8.59091 15.2823C8.69482 15.7734 8.97944 16.2145 9.39494 16.5285C9.81044 16.8424 10.3303 17.0092 10.8636 16.9996H21.9091C22.4424 17.0092 22.9623 16.8424 23.3778 16.5285C23.7933 16.2145 24.0779 15.7734 24.1818 15.2823L26 6.3332H6.68182" stroke="#5F3305" stroke-width="2" stroke-linecap="round" stroke-linejoin="round"/>
</svg>
